<svg xmlns="http://www.w3.org/2000/svg" viewBox="0 0 680 760"><style>text{font-family:DejaVu Sans,sans-serif;fill:#193e50;font-size:12px}.shell{fill:none;stroke:#355564;stroke-width:1.7}.old{fill:#e4edf1;stroke:#506c79;stroke-width:1}.new{fill:#188291;stroke:#155a65;stroke-width:1}.line{stroke:#67828b;stroke-width:1;fill:none}.axis{stroke:#a3b2b8;stroke-dasharray:5 3}.warn{fill:#a45226}</style><text x="20" y="24" style="font-size:17px">A-02 · End zones and support axial placement</text><text x="20" y="46">Projected connection OD bands; azimuth and exact centres follow in schedule.</text><text x="40" y="83">BOTTOM END</text><path class="shell" d="M75 120 V650 M195 120 V650"/><rect class="new" x="75" y="251.44" width="120" height="2.1200000000000045"/><text x="204" y="256.5">ST00 750</text><rect class="new" x="115.2" y="196.32" width="39.6" height="16.95999999999998"/><text x="204" y="208.79999999999995">R01 840</text><rect class="old" x="75" y="405.14" width="120" height="12.720000000000027"/><text x="204" y="415.5">SUP-L 450</text><rect class="old" x="52" y="360.62" width="23" height="38.15999999999997"/><text x="37" y="383.7" text-anchor="end">P01</text><rect class="old" x="52" y="424.22" width="23" height="38.15999999999997"/><text x="37" y="447.29999999999995" text-anchor="end">P02</text><rect class="old" x="52" y="499.26800000000003" width="23" height="15.263999999999896"/><text x="37" y="510.9" text-anchor="end">A01</text><rect class="old" x="52" y="311.33" width="23" height="9.54000000000002"/><text x="37" y="320.09999999999997" text-anchor="end">S01</text><rect class="old" x="52" y="470.33000000000004" width="23" height="9.539999999999964"/><text x="37" y="479.1" text-anchor="end">I01</text><line class="axis" x1="50" x2="310" y1="570.5" y2="570.5"/><text x="205" y="565.5">Tangent 150</text><text x="365" y="83">TOP END</text><path class="shell" d="M400 120 V650 M520 120 V650"/><rect class="new" x="400" y="505.84000000000003" width="120" height="2.1199999999999477"/><text x="529" y="510.9">ST39 7,770</text><rect class="new" x="440.2" y="546.12" width="39.6" height="16.960000000000036"/><text x="529" y="558.6">R39 7,680</text><rect class="old" x="400" y="341.5399999999995" width="120" height="12.720000000000482"/><text x="529" y="351.9">SUP-U 8,070</text><rect class="old" x="377" y="360.62" width="23" height="38.15999999999997"/><text x="362" y="383.7" text-anchor="end">P03</text><rect class="old" x="377" y="297.02000000000044" width="23" height="38.160000000000025"/><text x="362" y="320.1000000000005" text-anchor="end">P04</text><rect class="old" x="377" y="244.86800000000017" width="23" height="15.263999999999612"/><text x="362" y="256.5" text-anchor="end">A02</text><rect class="old" x="377" y="438.53" width="23" height="9.54000000000002"/><text x="362" y="447.29999999999995" text-anchor="end">S02</text><rect class="old" x="377" y="406.7300000000005" width="23" height="9.539999999999964"/><text x="362" y="415.50000000000045" text-anchor="end">I02</text><line class="axis" x1="375" x2="635" y1="188.89999999999998" y2="188.89999999999998"/><text x="530" y="183.89999999999998">Tangent 8370</text><text x="20" y="697">Support bands: 438–462 and 8058–8082. Nearest terminal plate gap: 286.</text><text x="20" y="719">Support-to-process-neck OD axial margin: 12; nozzle-to-terminal plate: ≥109.</text><text x="20" y="742">Connections are projected for spacing only; this is not a common cutting plane.</text></svg>