<svg xmlns="http://www.w3.org/2000/svg" viewBox="0 0 680 650"><style>text{font-family:DejaVu Sans,sans-serif;fill:#193e50;font-size:12px}.shell{fill:none;stroke:#355564;stroke-width:1.7}.old{fill:#e4edf1;stroke:#506c79;stroke-width:1}.new{fill:#188291;stroke:#155a65;stroke-width:1}.line{stroke:#67828b;stroke-width:1;fill:none}.axis{stroke:#a3b2b8;stroke-dasharray:5 3}.warn{fill:#a45226}</style><text x="20" y="25" style="font-size:17px">A-04 · Top-head, seal and drive reserved interfaces</text><text x="20" y="48">Schematic axial/radial projection; actual vent is at azimuth 315°.</text><path class="shell" d="M101 540 Q101 462 290 462 Q479 462 479 540"/><rect class="old" style="fill-opacity:.35" x="195.5" y="150" width="189" height="234"/><rect class="old" style="fill-opacity:.35" x="195.5" y="384" width="189" height="78"/><rect class="old" style="fill-opacity:.35" x="262.28" y="430.8" width="55.44" height="31.19999999999999"/><rect class="old" style="fill-opacity:.35" x="276.14" y="384" width="27.72" height="156"/><rect class="old" x="394.328" y="446.40000000000094" width="18.144000000000002" height="34.19205386482332"/><path class="line" d="M385 150 H500"/><text x="506" y="154" style="font-size:10px">Drive top9120</text><path class="line" d="M385 384 H500"/><text x="506" y="388" style="font-size:10px">Shaft end / pedestal top8670</text><path class="line" d="M385 430.8 H500"/><text x="506" y="434.8" style="font-size:10px">Seal top8580</text><path class="line" d="M385 462 H500"/><text x="506" y="466" style="font-size:10px">Top pole8520</text><path class="line" d="M385 540 H500"/><text x="506" y="544" style="font-size:10px">Top tangent8370</text><text x="20" y="575">Vent inner radial edge165.6; pedestal radius150 → 15.6 geometric clearance.</text><text x="20" y="598">Shaft requires top-head penetration. Seal/pedestal overlap is reserved nesting.</text><text x="20" y="622" class="warn">Pressure-boundary cut, mount, cavity and coupling engagement NOT detailed.</text></svg>